<svg width="2251" height="880" viewBox="0 0 2251 880" fill="none" xmlns="http://www.w3.org/2000/svg"><path fill-rule="evenodd" clip-rule="evenodd" d="M1655.15 126.083C1517.27 89.3342 1379.39 52.586 1241.5 15.8591C1175.39 -1.77364 1105.22 -4.09135 1038.09 9.11051C1022.55 12.1303 1007.44 16.1873 992.231 20.2721C989.014 21.1359 985.793 22.001 982.562 22.8577C711.223 95.1612 439.907 167.465 168.568 239.791L168.008 239.936C150.101 244.589 132.488 249.166 115.631 257.015C83.3143 271.557 55.0404 294.78 35.0102 324.069C15.7521 352.086 3.94291 385.216 0.695378 419.027C-0.008632 433.183 -0.0767626 447.93 0.718087 462.064C4.96486 506.577 24.2456 549.773 55.4946 581.858C81.4976 608.716 114.836 626.917 150.854 636.392C340.564 686.901 530.274 737.391 719.984 787.88C814.898 813.14 909.813 838.401 1004.73 863.664C1082.69 885.114 1166.72 885.205 1244.7 863.891C1362.08 832.652 1479.46 801.417 1596.83 770.182C1756.76 727.625 1916.67 685.068 2076.59 642.504C2079.36 641.765 2082.11 641.042 2084.85 640.321C2100.4 636.24 2115.64 632.24 2130.58 625.712C2164.78 611.17 2194.73 587.107 2215.62 556.295C2260 491.785 2262.2 401.326 2221.87 334.385C2203.5 303.505 2176.38 278.238 2144.5 261.786C2128.71 253.515 2111.95 247.676 2094.76 243.222C1948.22 204.191 1801.68 165.137 1655.15 126.083ZM1808.15 222.708C1612.88 170.68 1417.61 118.651 1222.33 66.6442C1158.56 49.5795 1090.71 49.6932 1026.98 66.9169C868.375 109.163 709.774 151.432 551.168 193.701C428.174 226.48 305.177 259.259 182.171 292.03C180.584 292.45 179 292.865 177.421 293.278C163.278 296.982 149.48 300.595 136.161 307.095C109.499 319.706 86.9935 340.475 72.6635 366.311C41.3691 421.822 48.9316 495.602 92.83 542.252C107.887 558.408 126.713 570.746 147.334 578.608C156.915 582.291 167.152 584.963 177.25 587.598C180.172 588.361 183.084 589.121 185.964 589.901C306.831 622.074 427.703 654.233 548.575 686.393C706.434 728.394 864.293 770.394 1022.15 812.424C1087.19 830.739 1156.73 831.511 1222.02 814.038C1510.3 737.349 1798.6 660.637 2086.86 583.903C2122.47 574.518 2154.22 552.704 2173.88 521.324C2205.25 472.062 2204.59 405.416 2172.11 356.858C2157.03 334.067 2135.23 316.139 2110.2 305.209C2098.43 299.954 2086.51 296.821 2074.27 293.603C2071.85 292.966 2069.41 292.327 2066.97 291.667C1980.69 268.682 1894.42 245.695 1808.15 222.708Z" fill="#D72133" /><path d="M859.383 149.968C863.426 159.989 864.857 170.169 870.761 179.667C880.208 195.641 894.016 206.23 909.391 216.068C929.921 229.816 954.175 237.519 977.998 243.358C998.051 248.312 1018.4 251.243 1038.82 254.265C1042.49 255.015 1050.4 256.856 1049.44 261.991C1046.17 272.693 1039.11 282.305 1034.55 292.553C1021.12 318.479 1016.49 346.837 1014.79 375.718C1012.86 414.187 1016.83 453.588 1022.65 491.626C1035.34 572.132 1057.28 651.48 1087.66 727.101C1109.49 732.691 1130.59 733.327 1152.55 728.032C1139.42 648.662 1148.3 564.27 1169.81 487.081C1186.41 424.026 1195.04 356.176 1188.34 291.121C1187.47 280.623 1184.98 270.33 1184.16 259.855C1183.86 257.446 1184.8 253.106 1187.66 252.743C1195.13 251.266 1203.19 252.266 1210.8 251.879C1241.98 251.061 1274.89 245.79 1302.98 231.656C1326.14 220.09 1344.24 199.526 1353.19 175.259C1356.44 167.169 1358.23 157.989 1362.61 150.468C1367.7 142.311 1380.33 143.72 1384.78 151.65C1386.66 156.512 1385.53 162.761 1384.73 167.783C1379.78 192.505 1365.38 215.682 1348.76 234.292C1336.63 248.039 1321.62 258.083 1305.23 266.013C1280.31 278.101 1253.95 285.032 1226.69 289.417C1235.12 347.019 1230.74 406.78 1217 463.245C1205.46 506.646 1194.15 551.546 1187.93 596.059C1182.96 634.188 1180.71 672.839 1182.32 711.286C1182.64 721.261 1184.5 731.554 1183.46 741.484C1181.32 756.14 1168.78 767.57 1154.07 768.774C1129.77 771.569 1102.97 770.842 1078.88 766.57C1066.91 764.525 1058.89 756.867 1054.94 745.597C1035.64 693.676 1018.06 641.027 1003.46 587.584C984.879 519.438 972.456 451.202 973.819 380.285C974.614 350.2 977.952 318.684 987.945 290.144C969.459 288.099 951.813 282.532 935.189 274.307C905.53 259.514 878.324 239.155 858.611 212.251C847.824 198.027 839.717 182.075 836.174 164.465C835.061 157.944 834.402 150.445 839.989 145.696C846.189 140.584 856.272 142.22 859.383 149.968Z" fill="#D72133" /><path d="M872.51 298.938C890.405 294.871 910.526 297.256 928.762 298.029C928.785 312.208 928.762 326.387 928.785 340.566C920.428 340.589 905.462 336.817 898.944 343.156C892.971 352.972 895.969 368.583 895.288 379.717C906.393 379.717 917.521 379.717 928.626 379.717C928.649 393.578 928.649 407.461 928.626 421.322C917.521 421.322 906.393 421.345 895.265 421.322C895.265 456.497 895.265 491.671 895.265 526.823C903.895 526.892 912.502 526.801 921.109 526.869C921.109 541.389 921.109 555.908 921.109 570.428C886.045 570.474 850.981 570.428 815.916 570.451C815.916 555.908 815.916 541.389 815.939 526.846C822.593 526.846 829.27 526.846 835.947 526.846C835.947 491.671 835.947 456.52 835.947 421.345C827.567 421.299 819.187 421.368 810.829 421.322C810.807 407.461 810.807 393.578 810.829 379.717C819.096 379.694 827.385 379.74 835.674 379.74C835.47 360.425 835.061 337.862 844.213 320.274C849.845 309.027 860.405 301.71 872.51 298.938Z" fill="#D72133" /><path d="M1273.09 305.323C1331.02 305.278 1388.94 305.3 1446.85 305.3C1446.85 332.908 1446.85 360.494 1446.85 388.102C1429.52 388.102 1412.21 388.102 1394.89 388.102C1394.89 375.081 1394.89 362.061 1394.89 349.041C1380.56 349.041 1366.23 349.041 1351.9 349.041C1351.9 369.833 1351.87 390.601 1351.9 411.392C1369.88 411.37 1387.85 411.37 1405.83 411.392C1405.83 427.094 1405.83 442.818 1405.83 458.542C1387.85 458.542 1369.88 458.542 1351.9 458.542C1351.87 480.787 1351.9 503.033 1351.9 525.278C1366.23 525.278 1380.56 525.278 1394.89 525.278C1394.89 511.213 1394.89 497.148 1394.89 483.105C1412.21 483.105 1429.52 483.105 1446.85 483.105C1446.85 512.213 1446.85 541.343 1446.85 570.451C1388.94 570.451 1331.02 570.451 1273.11 570.451C1273.11 555.386 1273.11 540.343 1273.11 525.301C1278.68 525.278 1284.26 525.301 1289.85 525.278C1289.85 466.54 1289.85 407.779 1289.85 349.041C1284.29 349.041 1278.7 349.041 1273.14 349.041C1273.09 334.476 1273.11 319.888 1273.09 305.323Z" fill="#D72133" /><path d="M1716.96 325.251C1716.55 343.406 1716.12 361.539 1715.75 379.694C1724.61 379.762 1733.47 379.671 1742.33 379.717C1742.37 393.873 1742.37 408.029 1742.35 422.186C1733.29 422.231 1724.25 422.14 1715.19 422.208C1714.78 449.907 1714.1 477.583 1713.71 505.282C1714.03 512.19 1713.69 522.847 1721.02 526.414C1727.36 529.096 1735.58 528.164 1742.37 528.278C1742.35 543.047 1742.37 557.817 1742.35 572.587C1725.57 574.336 1707.06 575.882 1690.46 572.405C1678.87 569.86 1668.36 563.861 1662.34 553.318C1654.44 539.639 1653.92 522.915 1654.05 507.532C1654.53 479.083 1655.05 450.634 1655.53 422.208C1649.99 422.186 1644.45 422.186 1638.88 422.186C1638.88 408.029 1638.88 393.873 1638.88 379.717C1644.74 379.717 1650.6 379.717 1656.46 379.694C1656.71 368.424 1656.98 357.153 1657.23 345.86C1677.13 338.975 1697.04 332.136 1716.96 325.251Z" fill="#D72133" /><path d="M2045.78 376.172C2045.89 394.964 2045.8 413.778 2045.82 432.57C2033.33 432.047 2020.23 430.843 2009.6 438.75C1999.58 446.34 1996.86 459.292 1996.16 471.153C1995.45 489.695 1996.04 508.282 1995.86 526.846C2001.67 526.846 2007.49 526.846 2013.32 526.846C2013.32 541.389 2013.32 555.931 2013.3 570.474C1983.16 570.428 1953.03 570.496 1922.89 570.428C1922.89 555.908 1922.89 541.389 1922.89 526.846C1927.34 526.869 1931.8 526.846 1936.25 526.823C1936.25 491.944 1936.25 457.088 1936.25 422.208C1931.8 422.186 1927.34 422.186 1922.89 422.186C1922.89 408.029 1922.89 393.873 1922.89 379.717C1945.15 379.717 1967.38 379.717 1989.61 379.717C1989.66 387.17 1989.61 394.646 1989.5 402.099C1995.38 393.487 2001.24 385.625 2010.89 380.989C2022.14 375.218 2033.49 375.581 2045.78 376.172Z" fill="#D72133" /><path fill-rule="evenodd" clip-rule="evenodd" d="M623.495 413.256C617.726 395.646 603.987 383.239 586.25 378.376C567.901 373.536 546.985 373.559 528.976 379.853C513.964 385.17 502.768 397.168 497.409 412.051C490.534 429.928 490.714 450.667 490.887 470.466C490.936 476.11 490.984 481.678 490.868 487.081C490.664 509.372 491.481 531.709 504.426 550.796C515.35 566.747 533.336 573.927 552.14 575.018C572.851 576.222 595.471 572.223 610.459 556.704C622.972 543.661 626.47 527.437 628.014 509.963C618.413 509.926 608.819 509.929 599.228 509.933C591.237 509.936 583.248 509.938 575.259 509.918C575.046 511.302 574.87 512.768 574.69 514.272C574.023 519.829 573.294 525.91 570.399 530.345C565.289 537.344 553.593 535.708 550.096 527.823C545.765 518.8 546.009 507.293 546.237 496.561C546.315 492.888 546.391 489.306 546.281 485.945H627.855C627.542 478.75 627.704 471.254 627.867 463.673C628.237 446.475 628.617 428.837 623.495 413.256ZM577.208 445.547C577.376 436.447 577.551 426.983 574.895 418.618C571.284 407.166 553.071 406.484 548.938 417.845C545.962 426.231 546.103 436.009 546.238 445.325C546.282 448.378 546.325 451.381 546.258 454.27H577.144C577.099 451.435 577.153 448.51 577.208 445.547Z" fill="#D72133" /><path fill-rule="evenodd" clip-rule="evenodd" d="M767.181 387.806C750.58 375.24 726.53 373.445 706.568 375.968C689.853 378.058 674.342 385.488 665.054 400.008C652.473 419.8 652.336 443.999 652.541 466.631C652.658 472.046 652.602 477.474 652.545 482.891C652.328 503.635 652.113 524.231 661.693 543.456C669.982 560.771 686.719 571.451 705.478 574.109C727.575 577.268 753.964 574.223 770.746 558.044C784.213 544.933 788.029 528.096 789.618 509.986C780.83 509.929 772.035 509.935 763.238 509.94C754.44 509.946 745.64 509.952 736.84 509.895C736.646 511.231 736.481 512.616 736.313 514.023C735.696 519.197 735.043 524.675 732.775 529.141C729.391 535.73 719.467 536.503 714.425 531.572C710.542 527.641 709.27 522.006 708.521 516.712C707.585 508.997 707.667 501.084 707.749 493.245C707.774 490.81 707.8 488.381 707.794 485.968C723.353 485.942 738.919 485.946 754.488 485.949C766.166 485.952 777.847 485.955 789.527 485.945C789.451 479.596 789.495 473.241 789.539 466.886C789.612 456.181 789.686 445.475 789.187 434.797C788.074 416.755 782.056 399.031 767.181 387.806ZM738.868 445.346C739.006 436.242 739.151 426.751 736.409 418.436C732.662 406.984 714.335 406.575 710.406 418.118C707.594 426.525 707.746 436.214 707.892 445.464C707.94 448.465 707.986 451.42 707.931 454.27H738.839C738.776 451.377 738.822 448.383 738.868 445.346Z" fill="#D72133" /><path fill-rule="evenodd" clip-rule="evenodd" d="M1895.35 413.21C1889.55 395.577 1875.81 383.194 1858.01 378.354C1839.66 373.536 1818.74 373.582 1800.76 379.876C1785.75 385.216 1774.62 397.236 1769.26 412.097C1762.41 430.016 1762.6 450.425 1762.78 470.102C1762.83 475.851 1762.89 481.538 1762.76 487.081C1762.47 509.191 1763.4 531.8 1776.25 550.728C1786.66 565.997 1803.64 573.359 1821.63 574.836C1843.02 576.541 1866.69 572.791 1882.29 556.772C1894.8 543.706 1898.34 527.46 1899.86 509.963C1891.88 509.922 1883.88 509.928 1875.89 509.933C1866.29 509.94 1856.7 509.947 1847.11 509.872C1846.91 511.219 1846.74 512.644 1846.57 514.108C1845.91 519.731 1845.18 525.919 1842.2 530.391C1837.09 537.367 1825.35 535.662 1821.92 527.778C1817.63 518.609 1817.83 507.019 1818.02 496.217C1818.08 492.671 1818.14 489.209 1818.04 485.945C1824.85 485.945 1831.66 485.947 1838.47 485.948C1858.9 485.952 1879.34 485.957 1899.77 485.923C1899.46 478.772 1899.61 471.32 1899.77 463.779C1900.12 446.543 1900.48 428.843 1895.35 413.21ZM1849.1 445.407C1849.25 436.337 1849.4 426.902 1846.72 418.595C1843.14 407.166 1825.01 406.507 1820.81 417.755C1817.82 426.143 1817.98 435.963 1818.14 445.311C1818.19 448.37 1818.24 451.379 1818.18 454.27H1849.06C1849.01 451.392 1849.05 448.42 1849.1 445.407Z" fill="#D72133" /><path fill-rule="evenodd" clip-rule="evenodd" d="M283.367 305.3C296.457 305.318 309.547 305.309 322.636 305.299C343.904 305.285 365.169 305.27 386.425 305.368C405.183 305.664 426.485 308.209 441.451 320.638C454.623 331.681 459.12 347.792 460.187 364.356C461.095 380.808 459.483 399.849 448.855 413.233C442.814 421.163 434.57 425.185 425.645 428.957C437.204 432.661 447.674 438.023 454.986 448.067C467.363 464.654 468.612 487.718 466.955 507.577C465.319 525.733 459.642 543.002 444.54 554.318C427.575 567.111 402.526 569.815 381.951 570.36C361.825 570.499 341.691 570.476 321.553 570.453H321.551C308.832 570.439 296.111 570.424 283.39 570.451C283.367 555.408 283.367 540.343 283.367 525.301C288.908 525.278 294.449 525.278 299.968 525.278C299.991 466.54 299.991 407.779 299.968 349.041H283.367V305.3ZM357.901 343.997C359.758 344.044 361.717 344.041 363.735 344.038C373.461 344.024 384.549 344.009 392.148 349.541C401.027 355.904 402.572 367.901 402.935 377.99C403.117 388.851 402.117 402.212 392.602 409.256C384.85 415.169 373.488 415.148 363.546 415.13C361.605 415.127 359.719 415.123 357.924 415.164C357.912 403.303 357.912 391.442 357.912 379.581C357.912 367.719 357.912 355.858 357.901 343.997ZM365.095 450.84C362.599 450.874 360.18 450.907 357.901 450.862C357.916 468.418 357.911 485.964 357.906 503.513C357.904 512.289 357.901 521.066 357.901 529.845C360.217 529.793 362.686 529.817 365.239 529.842C375.957 529.946 388.152 530.065 396.644 524.596C406.728 518.075 408.385 504.873 408.862 493.898C409.158 481.605 408.317 465.858 397.871 457.497C389.328 450.514 376.424 450.688 365.095 450.84Z" fill="#D72133" /><path fill-rule="evenodd" clip-rule="evenodd" d="M1599.96 390.851C1585.51 377.308 1563.55 374.695 1544.64 374.582C1525.83 374.65 1503.76 377.354 1489.74 391.26C1478.34 402.848 1476.37 417.141 1475.3 432.683C1493.63 432.706 1511.93 432.706 1530.24 432.683C1530.45 431.457 1530.62 430.18 1530.79 428.887C1531.24 425.436 1531.71 421.87 1533.17 418.845C1537.25 412.324 1547.11 411.233 1553.56 414.46C1558.44 417.255 1559.53 422.754 1560.12 427.889C1560.72 434.866 1560.64 441.91 1560.56 448.928C1560.54 451.03 1560.51 453.13 1560.51 455.224C1538.05 455.201 1514.88 455.27 1494.72 466.631C1482.21 473.584 1473.51 485.354 1470.9 499.488C1468.49 512.985 1469.6 529.05 1473.96 542.093C1478.16 554.954 1487.41 565.611 1500.46 569.928C1514 574.427 1530.8 573.7 1544.02 568.36C1553.45 564.702 1559.9 557.931 1566.48 550.591C1566.35 557.203 1566.32 563.816 1566.3 570.428C1582.21 570.462 1598.12 570.458 1614.04 570.454C1619.34 570.452 1624.63 570.451 1629.93 570.451V526.846H1617.31C1617.29 514.42 1617.3 501.994 1617.31 489.568C1617.32 473.591 1617.34 457.613 1617.28 441.636C1617.01 423.594 1613.72 403.757 1599.96 390.851ZM1563.84 488.911C1563.82 486.938 1563.81 484.983 1563.82 483.06C1562.13 483.16 1560.35 483.229 1558.52 483.3C1549.62 483.645 1539.61 484.034 1532.26 488.331C1524.56 492.898 1522.36 501.306 1522.36 509.759C1522.4 517.325 1523.9 526.096 1530.78 530.527C1539.59 535.594 1551.06 532.481 1556.72 524.188C1564.05 513.961 1563.94 501.092 1563.84 488.911Z" fill="#D72133" /></svg>