<svg id="Layer_1" data-name="Layer 1" xmlns="http://www.w3.org/2000/svg" viewBox="0 0 165.09 82.75"><defs><style>.cls-1{fill:#231f20;fill-rule:evenodd;}.cls-2{fill:none;stroke:#231f20;stroke-miterlimit:2.61;stroke-width:0.42px;}</style></defs><title>Bialetti</title><path class="cls-1" d="M21.29,82.17v-2.9a2.34,2.34,0,0,1,1,2,2.32,2.32,0,0,1-1,.87Zm0-10.13V69.81c.32-.06.93-.31.93-.62l-.93-1V55c4.21,2.93,5.09,6.06,4.09,11C27,67.66,27.09,69,26.5,70.14c-.7,1.29-2.63,1.7-4.57,1a9.31,9.31,0,0,0-.64.92Zm0-32V36.1c1.29-.44,2.27-1.11,2.27-2.12s-1-1.73-2.27-2.12v-.42c1.4.37,2.8,1,2.8,2.2.29.65-.65,2.63-1.46,2.63v.06c1.33,1.08,2.7,2.54.53,3.54a3.81,3.81,0,0,1-1.87.13Zm0-8.56v.42a12.58,12.58,0,0,0-1.34-.3v-.4c.4.08.87.17,1.34.28Zm0,4.66V40c-.47,0-.92-.14-1.34-.22V36.46a12.44,12.44,0,0,0,1.34-.36Zm0,18.86V68.22l-.14-.14-.81.72v.09l0,.13.78.81a.42.42,0,0,0,.14,0V72A27.06,27.06,0,0,0,20,74.43V62.49q.14.16.33.36c.06,0,.06,0,.09.06-.51-2.25-.31-3,.25-5.36-.23.37-.47.73-.67,1.09V55.55l.73-.61c-.06-.74-.25-1.59-.25-2.33l-.48.23V52l.33-.16L20,48.9V43.75l1.32,11.19,0,0Zm0,24.31v2.9a2.06,2.06,0,0,1-1.34.08V78.49a3.08,3.08,0,0,1,.73.36c.22.14.42.28.61.42ZM20,31.16v.4c-.47-.07-.95-.12-1.42-.17v-6h1.2l-.05.82h-1.1L19,31l1,.16Zm0,5.3v3.32l-.39-.06,0,.28L20,43.75V48.9l-1-9.37-.39-.14v-2.7c.47-.06.95-.14,1.42-.23ZM20,52v.84l-1.42.65v-.84L20,52Zm0,3.55v3.09c-.73,1.29-1.06,2.52,0,3.85v6.84l-.61.56v4.77L20,73.48v1c-.42.82-.81,1.62-1.2,2.29a2.93,2.93,0,0,0-.22.9V75.86l.27-.42c.06-1.61.06-3.41.06-5.07l-.33.3v-14L20,55.55Zm0,22.94v3.76a5,5,0,0,1-1.42-.61v-4c0,.65.66.58,1.42.82ZM18.27,29.94l-.13-1.24a1.45,1.45,0,0,0-1-1.27v-.29a3.33,3.33,0,0,1,.87.2c0-.34-.06-.81-.06-1.17h-.81v-.76h.74l-.06-.83h-.68V14.37l.15-.5,1.25,11.54h0v6l-1.41-.08v-.37h1.21v-.41l-1.21-.46v-.6l1.15.47Zm.26,6.75v2.7c-.48-.19-1-.39-1.41-.61V36.85l1.41-.16Zm0,16v.84l-1.41.67v-.85l1.41-.66Zm0,4.05v14l-.26.23-.06,5.47.32-.51v5.78c-.51-.31-1-.65-1.41-.89V77.37l.62-.48.06-5.58-.68.47V57.86l1.41-1.16ZM17.12,27.43a.89.89,0,0,0-.94.28v-.43a1.72,1.72,0,0,1,.94-.14v.29Zm-.94,1.67.94.37v.6l-.06,0a1.5,1.5,0,0,1-.88.62V29.1Zm.94-14.73V24.58h-.94V17.3l.94-2.93Zm0,11v.76h-.94v-.76Zm0,5.53v.37h-.94v-.36Zm0,5.91v1.93c-.31-.16-.63-.3-.94-.47V36.89c.3,0,.61,0,.94,0Zm0,16.46v.85l-.94.42v-.85l.94-.42Zm0,4.55V71.78l-.06,5.65.06-.06v3.38a1.45,1.45,0,0,0-.94-.28V77.79l.39-.06c0-1.89-.06-3.77-.06-5.7l-.33.21V58.62l.94-.76Zm-.94-30.15A1.68,1.68,0,0,0,16,29l.2.09v1.56a.57.57,0,0,1-.26,0c-.62-.14-1.07-2.73.26-3.38v.43Zm0-10.41v7.28H15.11v-9l.81,2.54.26-.86Zm0,8.11v.76H15.11v-.76Zm0,5.53v.36H15.11v-.36Zm0,5.95v1.42c-.35-.18-.71-.4-1.07-.61v-.77c.25,0,.64,0,1.07,0Zm0,16.84v.85l-1.07.52v-.87l1.07-.5Zm0,4.89V72.24l-.37.25v5.37l.37-.07v2.7a1.09,1.09,0,0,1-1.06.19V78.56c.14-.6.22-1.16,0-1.34v-.38l.28.11.06-4.28-.34.15V56.56l1-.07-.91,2.94,1-.81Zm-1.07-43v9H13.88V18.8l1-3.87.22.69Zm0,9.79v.76H13.88v-.76Zm0,5.53v.36H15l-1.11,0v-.33Zm0,6v.77a5.66,5.66,0,0,1-1.23.77V36.94Zm0,17.3v.87l-1.23.58V54.8l1.23-.57Zm0,2.33V72.82l-.34.14v3.76l.34.12v.38a.46.46,0,0,0-.47,0c-.77.23-.37,1.93-.65,2.76a2.74,2.74,0,0,1-.11.28v-3.1l.36-.42V73.09l-.36.11V56.67l1.23-.11Zm0,22c-.2.76-.53,1.62-.53,1.87.2.11.37.18.53.25V78.56ZM13.88,30.64V29.07l.17-.06c.31-.13.13-.64-.17-1V27.4c.95.81,1,3.07.23,3.26a.93.93,0,0,1-.23,0Zm0-11.84v5.78H13l0,.27V22.24l.89-3.44Zm0,6.61v.76H13v-.76Zm0,2V28a1.33,1.33,0,0,0-.48-.4.58.58,0,0,0-.41,0v-.45a1,1,0,0,1,.89.28Zm0,1.67v1.57a1.82,1.82,0,0,1-.89-.59v-.64l.89-.34Zm0,1.87v.33c-.26,0-.58,0-.89,0v-.31Zm0,6v1.53l-.89.4V37c.31,0,.61,0,.89,0Zm0,17.86v.88l-.89.4V54.77l.17.36.72-.33Zm0,1.87V73.2l-.36.12v4.22l.36-.4v3.1c-.23.53-.43.62-.89.5V77.53h.11V73.32H13v-12l.22-.14L13,60.52V56.75l.89-.08ZM13,22.24v2.61l-.12.56H13v.76h-.35l-.16,1.11a1.26,1.26,0,0,1,.51-.16v.45c-.68.21-1.07,1.62-1.23,2.25v.06L13,29.41v.64h0l-1.37.48V27.65L12,26.28h-.34v-.87h.56L13,22.24Zm0,8.7v.31c-.43,0-.9,0-1.38.05v-.36Zm0,6v1.91a13,13,0,0,1-1.38.53V36.93L13,37Zm0,17.81v1.31l-.12.06-1.26-2.69V52L13,54.77Zm0,2-.46,0-.92-1.64v3h.5L13,60.52V56.75Zm0,4.54v12h-.51c-.08,1.34,0,2.87-.08,4.11l.59.1v3.21c-.25-.08-.54-.2-1-.37l-.43.31V77.12l.22.31.06-4.05-.28,0V62.19l1.38-.9ZM11.61,25.41v.87H11v-.87Zm0,2.24v2.87h0l-.19.41h.22v.36c-.34,0-.7.05-1.06.09V31l.25,0,.81-3.29Zm0,9.28V39.4a9,9,0,0,1-1.06.33v-2.9c.36.05.72.08,1.06.1Zm0,15v1.5l-1.06-2.26V49.78L11.61,52Zm0,3.21-1.06-1.85v4.83h1.06v-3Zm0,7V73.41l-.22,0-.05,3.29.27.4v3.56c-.3.21-.65.48-1.06.73V77.68l.09-.07-.09-.21V75.74l.2.45.13-2.81-.33,0V62.89l1.06-.7ZM10.55,11.52V10.46a1.67,1.67,0,0,1,0,1.06Zm0-1.06v1.06a6.14,6.14,0,0,1-1,1.81V12.5a6.93,6.93,0,0,0,.29-.67,1.65,1.65,0,0,0-.29-2V9.24a2.09,2.09,0,0,1,.87,1,1,1,0,0,1,.09.22Zm0,20.53v.4c-.33.05-.65.1-1,.17v-.32a5.07,5.07,0,0,1,1-.25Zm0,5.84v2.9a4,4,0,0,1-.9.14c0,.13,0,.25-.06.38V36.69a9.64,9.64,0,0,0,1,.14Zm0,13v1.41l-1-2.08V47.82l1,2Zm0,3.53v4.83h-1V55.36l.94-2.1,0,.05Zm0,9.58V73.35l-.31,0,.06,1.81.25.61V77.4c-.31-.7-.64-1.4-1-2.1V73.83l.29.64V73.26l-.29,0V58.65l.94,4.26,0,0Zm0,14.79v3.73a8.35,8.35,0,0,1-1,.54V78.28a9.12,9.12,0,0,0,1-.6ZM9.59,3V.42A4.09,4.09,0,0,1,9.59,3Zm0-2.59V3a32.31,32.31,0,0,1-1.08,3.4,21.36,21.36,0,0,0-.15,2.41,10.43,10.43,0,0,1,1.23.42v.58a2.76,2.76,0,0,0-1.65-.51V8.17C8,7.62,8,7.08,8,6.53,8.08,5.16,10.36.87,8.82.47a.81.81,0,0,0-.88.29V.19L8.11.11C8.89-.12,9.35,0,9.59.42Zm0,12.08v.83c-.14.18-.27.34-.36.48s0,.41,0,.59l.12,16.9a1.05,1.05,0,0,1,.24-.06v.32a6.18,6.18,0,0,0-1.65.58v-8.9h.63l-.06-4.66H7.94v-.7h.57V14.4c.11-1.67.48-.79,1.08-1.9Zm0,24.19v3.56c-.35,1.62-1,3.21-1.36,4.8l1.36,2.77v1.29L8.11,46l-.17.67V36.15a5.92,5.92,0,0,0,1.65.54Zm0,18.67v2.78H9.46l.13.51V73.23l-.3,0,.3.63V75.3c-.38-.8-.74-1.57-1.12-2.34l-.53-.25V50.38l1.16,6,.49-1.06Zm0,22.92V82a2.92,2.92,0,0,1-1.65.36v-3a11.77,11.77,0,0,1,1.65-1ZM7.94,11.33V11a.59.59,0,0,1,.14-.06c.21-.17.12.12-.14.4ZM7.94.19V.76a4.64,4.64,0,0,0-.7,2V1.2a2.11,2.11,0,0,1,.7-1Zm0,8V9.31a3.2,3.2,0,0,0-.7,0v-.5a3.61,3.61,0,0,1,.65,0c0-.22,0-.43.05-.65Zm0,2.82v.34a1.29,1.29,0,0,1-.7.45v-.63a2.65,2.65,0,0,0,.7-.16Zm0,6.89v.7H7.3v4.66h.64v8.9a2.53,2.53,0,0,0-.7.53V17.88Zm0,18.27v10.5l-.41,1.61.41,2.12V72.71c-.24-.12-.47-.25-.7-.39V35.65a2.92,2.92,0,0,0,.7.5Zm0,43.14v3a1.32,1.32,0,0,1-.7-.34V80a3.46,3.46,0,0,1,.7-.67Zm-.7-62.72v0Zm0-15.37V2.73c-.41,2-.58,4.53-1.7,4.85-.09,0-.19,0-.26.07v-.4c1.32-.84,1-3,1.49-4.6A10.1,10.1,0,0,1,7.24,1.2Zm0,7.64v.5a1.57,1.57,0,0,0-1.11.48c-.47,1,.31,1.37,1.11,1.33v.63a.63.63,0,0,1-.36,0,.85.85,0,0,1-.94.76c0,.67-.26,1-.66,1.05v-.53c.14-.07.23-.25.14-.58a.42.42,0,0,1-.14-.09v-.81a3.6,3.6,0,0,0,.6.48c.06.06.34-.22.34-.34s-.34-.38-.38-.47c-.77-1.7.35-2.28,1.4-2.4Zm0,5.77v2c0,.44,0,.87-.07,1.31h.07V32.67a1.93,1.93,0,0,0-.58,1.22,2,2,0,0,0,.58,1.76V72.32a14.44,14.44,0,0,1-2-1.34V52l1.49-3.85.29-1v-7.3c0-.18-.93-.06-1.12-1.06-.17-.57.41-1.35,1-2H7v-.93a2.31,2.31,0,0,1-.18-3.54l-.1-17.68a1.48,1.48,0,0,1-1.44.22v-.57a1.06,1.06,0,0,0,1.26-.24c.21-.4.59-.15.7.49ZM7.24,80v2a.66.66,0,0,1-.18-.19A1.55,1.55,0,0,1,7.24,80Zm-2-72.71v.4a1.53,1.53,0,0,0-.44.24V7.45a2.55,2.55,0,0,0,.44-.2Zm0,4.32v.81a2.62,2.62,0,0,1-.44-.44V11a3,3,0,0,0,.44.56Zm0,1.48v.53h0c-.22.37-.14.64,0,.78v.57a1.38,1.38,0,0,1-.44-.34v-1.7c.14.13.26.19.36.17Zm0,39V71c-.14-.11-.3-.23-.44-.36V53.18L5.28,52ZM4.84,7.45v.44a1.28,1.28,0,0,0-.45.51V7.59l.2-.08a1.14,1.14,0,0,0,.25-.06Zm0,3.56v.93a4.29,4.29,0,0,1-.45-.69V10.1a4.28,4.28,0,0,0,.45.91Zm0,1.88v1.7c-.09-.11-.2-.23-.3-.37H4.39v-.53h0a.33.33,0,0,0,.12-.29.78.78,0,0,0-.15-.1v-.9a3,3,0,0,0,.45.48Zm0,40.29V70.62a4.19,4.19,0,0,1-.45-.39V54.35l.45-1.17ZM4.39,7.59V8.4a2.13,2.13,0,0,0,0,1.7v1.15c-.22-.35-.41-.73-.61-1-.36-.31-.36.09-.36.39a4.12,4.12,0,0,0,1,1.78v.9a4.8,4.8,0,0,1-1.14-1.39c-.25,0-.12.5-.12.61.06.8.62,1,1.26,1.16v.53c-1.64-.14-1.9-2.4-1.54-2.76.23-.14.34-.11.39-.08a.28.28,0,0,1-.05-.11c-.47-1.57.51-1.51.51-1.81,0-.59,0-1.53.69-1.87Zm0,46.76V70.23A45.94,45.94,0,0,1,0,65.67L4.39,54.35Z" /><polygon class="cls-1" points="157.53 81.81 157.43 31.31 165.06 31.41 165.09 81.85 157.53 81.81 157.53 81.81" /><polygon class="cls-1" points="151.35 81.66 143.82 81.63 143.83 38.73 139.41 38.73 139.41 31.27 155.71 31.3 155.89 38.81 151.36 38.81 151.35 81.66 151.35 81.66" /><polygon class="cls-1" points="126.31 81.77 126.39 38.72 121.91 38.66 121.88 31.19 138.46 31.25 138.46 38.72 133.86 38.81 133.81 81.71 126.31 81.77 126.31 81.77" /><polygon class="cls-1" points="87.13 81.58 87.13 31.31 95.17 31.34 95.19 74.54 100.74 74.54 100.65 81.58 87.13 81.58 87.13 81.58" /><path class="cls-1" d="M39.17,55.36c1.12-.06,1.91-.34,1.91-1.41V40.14c0-1.22,0-1.28-.78-1.3H39.17V31.53h5.74c3.22,0,3.7,2.67,3.72,4.76,0,7,0,13.88,0,20.85,0,1.17-1.31,1.51-2.07,1.61A2.62,2.62,0,0,1,48.41,61c0,5.42.11,11,0,16.44,0,1.91-1.83,4.27-3.65,4.26H39.17V74.3c1.13,0,2-.26,2-1.07V62.89c0-.87,0-.93-.79-1h-1.2V55.36Zm-1.93,0c.68,0,1.35,0,1.93,0v6.58l-1.85,0,0,12.34c.66,0,1.31,0,1.89,0v7.37l-9.37,0,.09-50.18h9.28v7.31h-1.9l0,16.52Z" /><polygon class="cls-1" points="60.22 31.45 60.21 81.66 52.35 81.66 52.35 31.34 60.22 31.45 60.22 31.45" /><path class="cls-1" d="M75.61,61.3V40.09a1.76,1.76,0,0,0-1.74-1.81h0v-8.2h.08c5.22,0,9.52,5.26,9.52,11.63V81.55l-7.77,0V68.74H73.84V61.3Zm-1.77-23a1.79,1.79,0,0,0-1.76,1.81V61.3h1.76v7.44H72V81.53l-7.6,0V41.71c0-6.34,4.22-11.58,9.42-11.63v8.2Z" /><path class="cls-1" d="M112.68,52.34V40.62a2.06,2.06,0,0,0-1.82-2.25V30.88a9.21,9.21,0,0,1,9.3,9.07v20.4h-9.3v-8Zm-1.82,30.41V75.5h.06a2.15,2.15,0,0,0,1.9-2.32v-8.4h7.34v9c0,6-4.65,9-9.3,9Zm0-44.38h0A2.06,2.06,0,0,0,109,40.62V52.34h1.84v8H109v4.43l0,8.4a2.17,2.17,0,0,0,1.84,2.32v7.25c-4.67,0-9.32-3-9.32-9V40a9.2,9.2,0,0,1,9.3-9.07h0v7.49Z" /><path class="cls-2" d="M-3.72-2.79" /></svg>