<svg width="402" height="149" viewBox="0 0 402 149" fill="none" xmlns="http://www.w3.org/2000/svg"><path d="M0.999961 6.01001C3.65996 1.44001 7.93996 0.100008 12.87 0.100008C28.87 0.100008 44.87 -0.169992 60.87 0.190008C79.87 0.620008 94.79 12.96 97.37 30.84C99.21 43.55 95.3 58.55 79.58 66.84C79.45 67.76 80.16 67.92 80.78 68.03C100.7 71.41 114.1 93.77 107.24 116.11C101.98 133.24 86.82 144.97 67.59 145.91C57.45 146.41 47.28 146.17 37.12 146.04C31.37 145.97 28.18 142.85 28.34 138.04C28.49 133.66 31.79 131.04 37.41 130.92C47.41 130.64 57.41 131.81 67.32 129.92C78.21 127.92 86.44 122.27 89.75 111.11C92.83 100.73 90.38 91.58 82.56 84.2C77.6255 79.5425 71.0852 76.9672 64.3 77.01C50.98 76.85 37.65 77.01 24.3 76.88C20.48 76.88 18.74 78.21 18.99 82.13C19.16 84.78 18.99 87.46 18.99 90.13C19.04 94.89 17.52 98.77 12.69 100.36C8.08996 101.86 4.58996 99.93 1.95996 96.12C1.64821 95.7248 1.31435 95.3475 0.959961 94.99L0.999961 6.01001ZM19.07 39.01L19.06 39.04C19.06 42.53 19.06 46.04 19.06 49.53C19.23 63.92 17.2 62 31.52 61.92C41.82 61.85 52.19 63.09 62.41 61.01C73.2126 58.772 80.6641 48.8481 79.8 37.85C79.01 24.86 71.5 16.58 59.5 16.15C47.5 15.72 35.5 16.06 23.5 15.98C20.28 15.96 19.07 17.4 19.07 20.52C19.13 26.68 19.07 32.85 19.07 39.01Z" fill="#BCBCBC" /><path d="M401 86.01C398.86 96.47 396.28 106.78 391.13 116.27C379.59 137.51 361.56 148.07 337.58 148.86C336.577 148.895 335.574 148.845 334.58 148.71C329.75 148.07 327.07 145.27 327.07 140.93C327.07 136.59 330.07 133.14 335.07 133.13C342.88 133.13 350.33 131.96 357.26 128.2C367.33 122.73 373.64 114.03 377.19 103.5C384.26 82.5 384.13 61.5 375.32 41C364.86 16.64 334.55 8.00001 313.78 23.25C301.54 32.25 296.78 45.48 294.14 59.71C293.14 65.13 293.14 70.63 292.95 76.13C292.75 82.87 289.26 86.22 283.07 86.13C276.88 86.04 274.07 82.88 273.96 76.13C273.57 53.4 279.46 32.93 296.07 16.54C322.35 -9.39999 368.7 -3.74999 388.3 27.65C393.216 35.6003 396.797 44.3022 398.9 53.41C399.52 55.99 400.32 58.53 401.03 61.08L401 86.01Z" fill="#BCBCBC" /><path d="M235.42 67.24C238.97 68.43 241.88 69.13 244.56 70.34C262.68 78.53 269.27 98.52 263.17 117.34C257.69 134.24 242.01 145.34 223.62 145.96C213.62 146.29 203.62 146.14 193.62 146.05C187.69 145.99 185.09 143.62 185 138.67C184.9 133.52 187.65 131.09 193.69 130.89C203.69 130.58 213.69 131.66 223.63 129.99C242.27 126.86 252.11 109.92 244.98 92.69C240.67 82.29 231.81 77.69 221.23 77.2C207.59 76.58 193.91 77.07 180.23 76.97C176.51 76.97 175.23 78.81 175.17 82.2C175.11 85.59 175.23 89.2 175 92.69C174.68 97.47 171.66 100.44 167.1 100.8C162.775 101.088 158.896 98.1511 158 93.91C157.424 90.7997 157.137 87.6431 157.14 84.48C157.073 61.1467 157.073 37.8133 157.14 14.48C157.14 2.80001 159.88 0.100014 171.58 0.100014C186.24 0.100014 200.91 -0.109986 215.58 0.170014C226.37 0.370014 235.93 3.75001 244.16 11.36C260.54 26.5 255.59 58.66 236.89 66.07C236.366 66.4148 235.874 66.8064 235.42 67.24ZM175.89 39.01C175.89 45.17 175.92 51.32 175.88 57.47C175.88 60.23 176.82 61.94 179.88 61.94C191.52 61.89 203.19 62.38 214.8 61.72C228.03 60.97 236.22 51.09 236.03 37.54C235.85 25.03 228.22 16.62 215.74 16.15C203.95 15.71 192.13 16.07 180.32 15.99C177.12 15.97 175.89 17.45 175.89 20.55C175.94 26.7 175.89 32.86 175.89 39.01Z" fill="#BCBCBC" /><path d="M139 50.6C139 63.0933 139 75.5833 139 88.07C139.157 90.2337 138.892 92.4074 138.22 94.47C136.56 98.56 133.46 100.26 129.14 99.99C124.82 99.72 122.32 97.59 121.41 93.49C121.126 92.1759 120.988 90.8344 121 89.49C121 63.17 120.92 36.86 121 10.55C121 2.01001 128 -2.44999 134.63 1.55001C138.43 3.84001 138.93 7.67001 138.94 11.6C139 24.62 139 37.61 139 50.6Z" fill="#BCBCBC" /></svg>