<svg viewBox="0 0 32 32" version="1.1" xmlns="http://www.w3.org/2000/svg" xmlns:xlink="http://www.w3.org/1999/xlink" _ngcontent-jfp-c430="" aria-hidden="true" data-optly-5B37E0D7-EF25-4CEA-9CA4-9E60E680E1D9="">
<circle class="user" fill="#FFFFFF" cx="16" cy="16" r="16" _ngcontent-jfp-c430="" data-optly-5B37E0D7-EF25-4CEA-9CA4-9E60E680E1D9=""></circle>
<path d="M16,0 C24.8366,0 32,7.16344 32,16 C32,19.9008032 30.6040917,23.4755554 28.2845498,26.2519819 C26.3545863,23.9361185 23.5517655,22.2775062 19.8697,21.6315 C19.5583,24.2324 18.6275,29.9226 16.4382,29.9992 C14.3684978,30.0722065 13.489286,24.9161082 13.1646621,22.1159918 L13.1646621,22.1159918 L13.1046,21.5669 C8.99356,22.2049 6.05827,24.1084 4.18457,26.7888 L4.18457,26.7888 L4.0829975,26.6766201 C1.5441599,23.8447372 0,20.1027071 0,16 C0,7.16344 7.16344,0 16,0 Z M16.2203,5.41968 C14.4662,5.41968 11.6915,6.14557 10.6768,7.84326 C10.2535625,8.5516425 10.305625,9.78898 10.4327092,11.0456361 L10.4327092,11.0456361 L10.4906,11.5839 C10.3466,11.6612 10.2213,11.7651 10.1295,11.9032 C9.9926325,12.109375 9.96127312,12.4238875 9.95599125,12.7383578 L9.95599125,12.7383578 L9.95775,13.2236 C9.95775,13.8467 10.3275,14.3977 10.7407,14.7318 C11.2281,18.3605 14.387,21.1645 16.2136,21.1645 C18.0727,21.1645 21.312,18.2598 21.71,14.5372 C22.0298,14.2028 22.2811,13.7379 22.2811,13.2236 L22.2811,13.2236 L22.2850813,12.6953297 C22.2810688,12.3678937 22.250225,12.03825 22.1102,11.8341 C22.0671,11.7713 22.0064,11.7155 21.933,11.6664 C22.1045,10.2104 22.2655,8.6794 21.7505,7.84326 C20.9656,6.56915 17.945,5.41968 16.2203,5.41968 Z" class="cut-out-circle" fill="#000000" fill-rule="nonzero" _ngcontent-jfp-c430="" style="
    fill: #adacb5;
" data-optly-5B37E0D7-EF25-4CEA-9CA4-9E60E680E1D9=""></path>
</svg>