<svg width="1050" height="320" viewBox="0 0 1050 320" fill="none" xmlns="http://www.w3.org/2000/svg"><path d="M120.801 3.02713C90.4013 12.0271 60.0013 34.3271 42.7013 60.2271C28.3013 81.9271 21.6013 104.027 20.6013 133.127C19.4013 170.527 29.2013 199.927 51.8013 227.027C64.6013 242.427 88.0013 259.627 106.701 267.327L114.601 270.627L57.5013 270.927L0.30127 271.127V288.627V306.127H524.301H1048.3V288.627V271.127H1038.4H1028.5L1026.4 263.427C1025.3 259.127 1009.1 199.727 990.601 131.327L956.901 7.02713L944.901 7.32713L932.901 7.62713L897.301 139.127L861.601 270.627L834.501 270.927L807.301 271.127V139.127V7.12713H790.301H773.301V139.127V271.127H741.801H710.301V204.627V138.127H692.801H675.301V184.627C675.301 210.227 675.001 231.127 674.601 231.127C674.301 231.127 669.701 228.227 664.401 224.727C647.001 213.227 632.401 195.727 625.401 178.027C619.801 164.027 618.901 158.427 618.801 138.127C618.801 122.127 619.101 118.427 621.101 110.727C623.801 100.027 630.601 85.3271 636.701 76.7271C647.801 61.2271 668.201 45.9271 687.601 38.6271L692.301 36.8271V19.0271C692.301 6.42713 692.001 1.12713 691.201 1.12713C688.501 1.12713 668.801 8.32713 661.601 12.0271C641.401 22.1271 617.701 42.4271 606.601 59.1271C592.301 80.4271 584.801 104.027 583.601 131.127C581.401 180.627 601.301 222.127 640.801 250.727C645.801 254.227 656.101 260.327 663.701 264.127L677.701 271.127H602.001H526.301V204.627V138.127H508.801H491.301V184.727V231.327L486.601 228.627C478.701 224.127 467.801 215.427 461.401 208.527C444.701 190.727 436.001 169.727 434.601 144.127C432.101 95.6271 457.001 57.5271 504.101 38.3271L509.301 36.2271L509.101 18.9271L508.801 1.62713L505.401 1.92713C503.501 2.12713 498.701 3.42713 494.901 4.82713C459.301 17.5271 427.701 45.1271 413.001 76.3271C408.401 86.0271 403.701 101.027 401.601 112.427C399.301 125.327 399.301 151.427 401.801 164.127C410.201 208.627 436.901 242.827 479.801 264.227L493.801 271.127L430.901 270.927L368.001 270.627L332.301 139.127L296.701 7.62713L284.601 7.32713L272.501 7.02713L271.801 9.82713C271.501 11.3271 255.401 70.5271 236.201 141.427C217.001 212.227 201.301 270.427 201.301 270.627C201.301 270.927 188.901 271.127 173.801 271.127H146.301V204.627V138.127H129.301H112.301V184.627C112.301 210.227 111.901 231.127 111.501 231.127C110.101 231.127 97.3013 222.427 90.1013 216.527C76.0013 204.927 63.1013 184.727 58.2013 166.627C55.0013 154.527 54.4013 128.127 57.1013 115.127C63.7013 83.2271 83.6013 58.3271 114.801 42.8271C118.701 40.9271 123.501 38.8271 125.601 38.2271L129.301 36.9271V19.0271C129.301 5.32713 129.001 1.12713 128.101 1.22713C127.401 1.22713 124.101 2.02713 120.801 3.02713ZM305.001 172.727C304.801 173.027 295.401 173.027 284.201 172.927L263.701 172.627L273.501 136.627C278.801 116.827 283.501 99.5271 283.901 98.1271C284.401 96.3271 287.401 106.127 295.001 134.027C300.701 155.127 305.201 172.527 305.001 172.727ZM955.801 135.627L965.901 172.627L945.401 172.927C934.201 173.027 924.801 173.027 924.601 172.727C924.401 172.527 928.801 155.227 934.501 134.227C940.201 113.227 945.001 96.7271 945.301 97.3271C945.501 98.0271 950.301 115.227 955.801 135.627ZM317.201 215.827C318.401 220.127 322.201 234.227 325.701 247.127L332.101 270.627L285.001 270.927C259.201 271.027 237.801 270.927 237.601 270.727C237.301 270.427 252.201 214.027 253.801 209.327C254.101 208.427 261.201 208.127 284.701 208.127H315.101L317.201 215.827ZM983.901 239.127C988.501 255.927 992.301 269.927 992.301 270.327C992.301 270.827 970.901 271.127 944.701 271.127C897.601 271.127 897.201 271.127 897.801 269.127C898.801 266.027 914.301 209.027 914.301 208.527C914.301 208.327 928.101 208.227 944.901 208.327L975.601 208.627L983.901 239.127Z" fill="black" /></svg>