<svg width="1185" height="608" viewBox="0 0 1185 608" fill="none" xmlns="http://www.w3.org/2000/svg"><path d="M499.387 41.6933C504.88 46.6667 507.387 53.1733 509.053 60.2267C505.88 60.24 502.72 60.24 499.56 60.24C497.88 55.72 496.453 51.5333 492.84 48.1333C484.413 39.9867 469.667 40.88 462.36 50.12C456.173 57.04 458 69.64 457.413 78.3333C457.92 86.7733 456.4 98.7733 461.827 105.8C469.76 116.653 487.4 116.44 495.293 105.68C500.227 99.2133 499.48 91.8933 499.76 84.2267C492.627 84.2533 485.493 84.24 478.36 84.2667C478.36 81.5467 478.347 78.8267 478.347 76.12C488.52 76.12 498.707 76.1467 508.88 76.0933C508.493 85.0533 510.107 95.5733 506.92 103.973C502.667 115.24 490.533 122.467 478.707 122.387C466.053 122.76 452.747 114.693 449.493 102.027C447.187 92.4667 448.227 81.52 447.973 71.6667C448.133 61.9867 447.947 51.6267 455.093 44.1467C466.107 31.5867 487.067 30.48 499.387 41.6933Z" fill="#181617" /><path d="M884 34.7867C884 37.5867 884 40.4 884 43.2C869.08 43.24 854.173 43.1733 839.253 43.24C839.227 53.4133 839.267 63.5867 839.24 73.76C851.947 73.7467 864.64 73.7467 877.347 73.76C877.333 76.4667 877.333 79.1867 877.333 81.8933C864.64 81.88 851.96 81.8667 839.267 81.8933C839.227 92.2667 839.267 102.627 839.24 113C854.16 113 869.08 113 884 113C884 115.853 884 118.72 884.013 121.587C866.027 121.587 848.053 121.547 830.067 121.6C830.093 92.6533 830.093 63.72 830.067 34.7867C848.053 34.7867 866.027 34.7733 884 34.7867Z" fill="#181617" /><path d="M945.907 34.92C965.773 34.5867 985.76 34.9067 1005.64 34.7733C1005.64 37.5867 1005.65 40.4 1005.67 43.2133C997.213 43.2267 988.76 43.2 980.32 43.2267C980.32 69.3467 980.293 95.4533 980.32 121.56C977.253 121.573 974.187 121.587 971.12 121.6C971.12 95.48 971.133 69.36 971.107 43.24C962.653 43.2 954.2 43.2 945.747 43.2267C945.76 40.4667 945.693 37.6667 945.907 34.92Z" fill="#181617" /><path d="M1070.33 34.7867C1073.56 34.7867 1076.77 34.7867 1080 34.8C1080.01 47.7867 1080 60.7733 1080 73.76C1093.6 73.7467 1107.19 73.7467 1120.77 73.76C1120.72 60.7733 1120.79 47.7867 1120.73 34.8C1123.91 34.7867 1127.07 34.7867 1130.24 34.7733C1130.17 63.7067 1130.24 92.6533 1130.21 121.587C1127.05 121.587 1123.91 121.573 1120.75 121.587C1120.75 108.36 1120.77 95.12 1120.73 81.8933C1107.16 81.8533 1093.59 81.9067 1080.01 81.8667C1080 95.1067 1080 108.333 1080.01 121.573C1076.79 121.573 1073.56 121.587 1070.33 121.587C1070.37 92.6533 1070.37 63.72 1070.33 34.7867Z" fill="#181617" /><path fill-rule="evenodd" clip-rule="evenodd" d="M720.152 34.7825C714.321 34.7918 708.487 34.8011 702.653 34.7865C702.673 56.49 702.671 78.1936 702.668 99.8971C702.668 107.127 702.667 114.357 702.667 121.587H712.307C712.307 117.324 712.308 113.062 712.31 108.8C712.313 100.275 712.316 91.7509 712.307 83.2265C715.687 83.2198 719.067 83.2165 722.447 83.2132C725.827 83.2098 729.207 83.2065 732.587 83.1998C737.735 92.9158 742.728 102.725 747.72 112.533C749.256 115.552 750.792 118.571 752.333 121.587C753.586 121.587 754.84 121.585 756.095 121.584C758.606 121.581 761.119 121.578 763.627 121.587C760.38 115.507 757.196 109.395 754.011 103.282C750.407 96.3649 746.802 89.4465 743.107 82.5732C748.533 80.6265 753.493 78.8132 757.08 74.0132C764.653 63.9998 763.253 46.5198 752.32 39.3732C747.12 35.6265 740.96 34.7865 734.72 34.7732C729.866 34.7671 725.01 34.7748 720.152 34.7825ZM722.281 43.2034C718.96 43.2172 715.638 43.231 712.32 43.2132C712.307 53.7332 712.293 64.2666 712.32 74.7866C715.748 74.752 719.179 74.7721 722.609 74.7922C727.13 74.8187 731.649 74.8451 736.16 74.7466C741.453 74.5466 746.667 72.7999 749.787 68.2932C753.52 62.3866 753.227 53.7066 748.627 48.3466C744.96 44.5066 739.88 43.3466 734.733 43.2132C730.585 43.1688 726.433 43.1861 722.281 43.2034Z" fill="#181617" /><path fill-rule="evenodd" clip-rule="evenodd" d="M605.572 34.7483C603.436 34.7466 601.292 34.7449 599.173 34.9599C598.085 37.0899 597.276 39.3842 596.474 41.6613C596.156 42.5628 595.84 43.4617 595.507 44.3466C586.067 70.1066 576.573 95.8533 567.08 121.587C570.493 121.573 573.893 121.573 577.293 121.573C579.613 115.013 581.933 108.453 584.293 101.907C591.219 101.87 598.15 101.874 605.079 101.878C610.623 101.881 616.166 101.884 621.707 101.867C624.093 108.413 626.4 114.987 628.653 121.587C629.796 121.587 630.939 121.585 632.081 121.584C634.364 121.581 636.645 121.578 638.92 121.587C635.819 113.128 632.713 104.672 629.607 96.2158C622.084 75.7339 614.562 55.2536 607.107 34.7466C606.596 34.7492 606.084 34.7487 605.572 34.7483ZM618.998 93.727C613.745 78.6891 608.492 63.6513 603.173 48.6401C602.72 49.8801 602.28 51.1201 601.84 52.3601C600.109 57.2007 598.389 62.0445 596.668 66.8882C593.484 75.8534 590.299 84.818 587.053 93.7601C591.44 93.7492 595.825 93.754 600.209 93.7588C606.471 93.7658 612.733 93.7727 619 93.7335L618.998 93.727Z" fill="#181617" /><path fill-rule="evenodd" clip-rule="evenodd" d="M9.75374 0.101123C6.68892 0.0662415 3.62264 0.0313435 0.573343 0.239843C0.36884 3.06732 0.40151 5.91259 0.434111 8.75192C0.450398 10.1704 0.466668 11.5873 0.453343 12.9998V301.333C100.933 301.293 201.427 301.307 301.907 301.32C301.913 277.833 301.913 254.347 301.913 230.86C301.913 207.373 301.913 183.887 301.92 160.4C291.635 160.432 281.348 160.427 271.06 160.422C259.914 160.417 248.769 160.412 237.627 160.453C237.657 142.099 237.653 123.75 237.648 105.402C237.645 91.6409 237.642 77.8804 237.653 64.1198C223.241 64.1198 208.829 64.1207 194.417 64.1215C151.189 64.124 107.961 64.1265 64.7333 64.1065C64.7662 99.6342 64.7586 135.167 64.751 170.698C64.7463 192.906 64.7416 215.114 64.7467 237.32C68.9467 237.307 73.1333 237.307 77.32 237.32C77.3467 215.88 77.3467 194.44 77.3333 173C95.239 173.005 113.143 173.003 131.046 173C162.377 172.996 193.706 172.993 225.04 173.027C225.011 188.331 225.017 203.636 225.022 218.941C225.024 225.063 225.027 231.185 225.027 237.307H237.64C237.653 215.88 237.667 194.453 237.627 173.013C247.478 172.998 257.324 173 267.171 173.002C274.558 173.004 281.944 173.006 289.333 173V289H12.88C12.8853 252.141 12.8821 215.283 12.8789 178.424C12.8741 123.136 12.8693 67.8478 12.8933 12.5598C68.1811 12.5358 123.469 12.5406 178.757 12.5454C215.615 12.5486 252.474 12.5518 289.333 12.5465V109H301.907C301.918 93.4501 301.915 77.8979 301.912 62.3443C301.907 41.5956 301.903 20.8444 301.933 0.0931751C240.995 0.127115 180.062 0.123258 119.128 0.119401C84.3086 0.117198 49.4885 0.114994 14.6667 0.119842C13.0313 0.138426 11.3927 0.119777 9.75374 0.101123ZM114.272 76.5451C101.964 76.546 89.6551 76.5468 77.3467 76.5468C77.3333 104.507 77.3333 132.467 77.3467 160.427C91.413 160.427 105.48 160.425 119.548 160.422C154.714 160.417 189.883 160.412 225.053 160.44C225.013 139.471 225.018 118.502 225.023 97.5331C225.025 90.5421 225.027 83.5511 225.027 76.5601C188.108 76.5401 151.19 76.5426 114.272 76.5451Z" fill="#181617" /><path d="M612.067 180.773C618.88 181.827 624.28 185.4 629.533 189.627C627.467 191.68 625.4 193.733 623.347 195.8C614.88 188.507 602.533 185.68 592.293 190.787C584 195.053 581.72 208.467 589.133 214.507C598.587 221.627 614.067 218.053 623.92 225.04C636.347 233.333 635.84 255.013 623.213 262.92C614.413 268.92 603.507 268.933 593.307 267.693C585.36 266.507 578.587 262.547 572.987 256.907C575.16 254.747 577.347 252.6 579.533 250.453C584.347 254.827 589.413 258.413 596.027 259.32C603.453 260.28 612.2 260.36 618.28 255.307C626.053 249.333 625.187 234.427 615.453 230.853C607.627 228.16 598.88 228.507 590.973 225.853C585 223.907 579.587 220.373 577.16 214.333C573.24 204.613 575.6 191.693 584.453 185.4C592.28 179.693 602.84 179.373 612.067 180.773Z" fill="#181617" /><path d="M703.133 180.68C706.28 180.693 709.427 180.68 712.573 180.68C712.587 193.667 712.587 206.667 712.573 219.667C726.16 219.667 739.747 219.667 753.333 219.667C753.333 206.667 753.32 193.667 753.347 180.667C756.56 180.68 759.773 180.693 762.987 180.707C762.973 209.693 762.987 238.68 762.987 267.667C759.76 267.667 756.547 267.667 753.333 267.667C753.333 254.52 753.333 241.373 753.32 228.24C739.733 228.253 726.147 228.24 712.56 228.24C712.587 241.387 712.573 254.52 712.587 267.667C709.427 267.667 706.267 267.667 703.12 267.667C703.133 238.667 703.107 209.667 703.133 180.68Z" fill="#181617" /><path d="M827.12 180.667C846.96 180.72 866.813 180.68 886.667 180.693C886.667 183.56 886.667 186.44 886.667 189.32C878.32 189.293 869.973 189.333 861.627 189.293C861.653 215.413 861.64 241.547 861.64 267.667C858.427 267.667 855.213 267.667 852 267.667C851.987 241.547 852.013 215.427 851.987 189.307C843.693 189.307 835.413 189.307 827.12 189.32C827.12 186.427 827.12 183.547 827.12 180.667Z" fill="#181617" /><path d="M1066.09 180.68C1069 180.693 1071.92 180.693 1074.83 180.693C1090.25 203.56 1105.27 226.72 1120.73 249.56C1120.77 226.6 1120.75 203.64 1120.75 180.68C1123.91 180.68 1127.05 180.68 1130.21 180.667C1130.23 209.667 1130.2 238.667 1130.23 267.667C1127.21 267.653 1124.2 267.667 1121.2 267.68C1105.88 244.547 1090.53 221.427 1075.25 198.267C1075.23 221.4 1075.25 244.533 1075.25 267.667C1072.2 267.667 1069.13 267.667 1066.08 267.667C1066.09 238.667 1066.07 209.667 1066.09 180.68Z" fill="#181617" /><path fill-rule="evenodd" clip-rule="evenodd" d="M1002.72 195.493C997.493 185.946 986.907 179.906 976.027 180.106C964.294 179.586 951.787 186.8 947.547 197.96C945.185 204.802 945.258 212.895 945.326 220.465C945.344 222.468 945.361 224.436 945.334 226.333C945.338 227.388 945.332 228.47 945.327 229.571C945.28 238.458 945.228 248.584 950.4 255.88C958.614 267.613 974.587 271.2 987.654 266.186C994.494 263.493 1000.84 257.973 1003.57 251.04C1006.1 244.595 1006.01 237.112 1005.92 229.941C1005.89 227.81 1005.86 225.707 1005.91 223.666C1005.88 221.866 1005.9 220.025 1005.92 218.164C1006 210.447 1006.09 202.39 1002.72 195.493ZM996.407 211.882C995.91 205.394 995.453 199.435 990.32 194.68C982.373 186.386 968.427 186.573 960.64 195C955.287 200.534 955.094 207.704 954.902 214.87C954.883 215.576 954.864 216.282 954.84 216.986C954.493 224.56 954.76 232.16 955.187 239.72C955.587 245.506 957.453 251.053 962.027 254.88C969.627 261.506 982.147 261.48 989.573 254.586C993.213 251.466 995.213 247.12 995.813 242.4C997.027 232.68 996.907 222.76 996.493 213C996.464 212.625 996.435 212.253 996.407 211.882Z" fill="#181617" /><path fill-rule="evenodd" clip-rule="evenodd" d="M482.533 180.667C479.893 180.68 477.24 180.693 474.6 180.68C469.58 194.254 464.586 207.837 459.592 221.42C453.923 236.841 448.254 252.261 442.547 267.667C444.253 267.667 445.96 267.663 447.667 267.66C449.373 267.656 451.08 267.653 452.787 267.653C453.116 266.723 453.447 265.792 453.777 264.861C455.771 259.244 457.766 253.624 459.653 247.973C465.031 247.979 470.41 247.977 475.79 247.976C482.963 247.973 490.137 247.971 497.307 247.987C498.695 252.093 500.15 256.179 501.606 260.263C502.484 262.73 503.363 265.196 504.227 267.667C507.627 267.667 511.013 267.667 514.413 267.64C509.107 253.14 503.79 238.648 498.474 224.155C493.157 209.661 487.84 195.167 482.533 180.667ZM485.538 214.187C483.266 207.697 480.994 201.205 478.693 194.72C475.723 202.882 472.816 211.064 469.909 219.244C467.493 226.044 465.078 232.842 462.627 239.627C473.253 239.68 483.88 239.694 494.507 239.614C491.478 231.153 488.508 222.671 485.538 214.187Z" fill="#181617" /><path d="M771.413 357.013C891.36 356.987 1011.29 357.013 1131.23 357C1131.24 358.88 1131.25 360.76 1131.25 362.653C1011.31 362.64 891.36 362.64 771.413 362.64C771.413 360.76 771.413 358.893 771.413 357.013Z" fill="#181617" /><path d="M1169.03 466.773H1172.91C1173.12 471.6 1172.11 477.24 1173.75 481.84C1175.87 482.88 1177.77 482.4 1179.99 482.16C1180.6 477.027 1180.48 471.92 1180.45 466.76L1184.32 466.8C1184.23 471.467 1184.65 476.293 1183.96 480.907C1182.97 487.427 1170.03 487.787 1169.32 480.933C1168.73 476.267 1169.08 471.453 1169.03 466.773Z" fill="#181617" /><path fill-rule="evenodd" clip-rule="evenodd" d="M1161.45 466.68C1160.12 466.72 1158.79 466.827 1157.48 466.987C1155.36 471.578 1153.8 476.473 1152.25 481.328C1151.75 482.916 1151.24 484.499 1150.72 486.067C1154.36 485.543 1154.71 484.843 1156.04 482.187C1156.14 482.005 1156.23 481.814 1156.33 481.613C1158.43 481.573 1160.53 481.56 1162.64 481.573C1163.08 482.907 1163.53 484.253 1163.99 485.587C1165.41 485.573 1166.83 485.573 1168.25 485.573C1167.2 482.719 1166.19 479.851 1165.17 476.982C1163.96 473.54 1162.74 470.098 1161.45 466.68ZM1161.59 478.787C1160.81 476.374 1160.04 473.974 1159.24 471.587C1158.43 473.974 1157.71 476.374 1156.99 478.787H1161.59Z" fill="#181617" /><path d="M1075.56 485.427C1075.52 497.72 1075.59 510.027 1075.51 522.32C1075.49 528.8 1076.6 535 1080.96 540.027C1087.64 547.653 1100.71 548.04 1107.81 540.813C1112.8 535.84 1113.89 529.133 1114.08 522.373C1114.11 510.053 1114.09 497.747 1114.07 485.427C1120.15 485.467 1126.23 485.453 1132.32 485.453C1132.31 498.64 1132.29 511.827 1132.33 525.013C1132.32 533.613 1129.89 542.693 1124.61 549.6C1119.53 556.533 1112.19 560.467 1104 562.587C1104 577.707 1104 592.84 1104 607.973C1097.79 607.973 1091.56 607.973 1085.33 607.973C1085.33 592.853 1085.33 577.72 1085.33 562.587C1078.47 560.653 1072.15 557.84 1067.21 552.533C1059.76 544.707 1056.87 534.333 1056.77 523.72C1056.69 510.96 1056.8 498.2 1056.73 485.44C1063.01 485.467 1069.28 485.467 1075.56 485.427Z" fill="#181617" /><path fill-rule="evenodd" clip-rule="evenodd" d="M820.206 451.646C816.361 451.588 812.506 451.53 808.72 451.947C801.364 473.016 794.183 494.265 787.005 515.506C781.837 530.801 776.67 546.091 771.44 561.307C773.072 561.307 774.705 561.307 776.338 561.308C781.244 561.311 786.155 561.313 791.067 561.293C791.183 561.043 791.297 560.795 791.41 560.549C793.015 557.053 794.368 554.106 798.84 553.72C804.443 553.481 810.068 553.523 815.692 553.565C819.798 553.595 823.904 553.625 828 553.547C828.881 553.574 829.802 553.561 830.739 553.548C833.404 553.511 836.199 553.472 838.587 554.36C841.13 555.467 842.159 557.566 843.26 559.812C843.498 560.297 843.739 560.789 844 561.28C850.507 561.333 857 561.32 863.507 561.307C857.21 542.575 850.848 523.864 844.485 505.153C838.424 487.331 832.364 469.508 826.36 451.667C824.319 451.708 822.264 451.677 820.206 451.646ZM828.656 517.059C825.137 506.636 821.619 496.211 817.787 485.92C817.592 486.23 817.393 486.535 817.195 486.838C816.406 488.047 815.632 489.233 815.173 490.64C810.067 506.12 804.84 521.56 799.56 536.987C806.744 537.011 813.928 537.006 821.112 537.001C825.902 536.998 830.691 536.995 835.48 537C833.151 530.378 830.904 523.719 828.656 517.059Z" fill="#181617" /><path fill-rule="evenodd" clip-rule="evenodd" d="M1043.56 528.014C1046.03 515.334 1042.68 502.107 1033.24 493.08C1020.16 480.387 998.44 479.48 983.907 490.24C968.813 500.76 963.307 521.16 969.44 538.254C973.48 549.707 983.253 558.654 994.96 561.854C1009.15 565.48 1025.56 562.427 1035.76 551.387C1039.65 547.32 1041.91 542.374 1043.68 537.094C1037.84 536.947 1032 536.987 1026.16 537.04C1021.76 547.76 1008.29 550.707 998.28 546.707C990.147 543.494 985.613 536.347 983.92 528.014C1003.8 527.947 1023.68 527.96 1043.56 528.014ZM1025.97 511.597C1024.96 508.582 1024.02 505.798 1021.53 503.467C1014.56 496.64 1003.04 495.893 995.013 501.36C990.333 504.253 987.747 508.613 985.28 513.373C999.027 513.493 1012.8 513.547 1026.56 513.333C1026.35 512.747 1026.16 512.168 1025.97 511.597Z" fill="#181617" /><path fill-rule="evenodd" clip-rule="evenodd" d="M892.307 451.667H874.667C874.654 468.534 874.659 485.401 874.664 502.269C874.669 521.948 874.675 541.627 874.653 561.307C878.582 561.315 882.511 561.312 886.44 561.309C888.404 561.308 890.369 561.307 892.333 561.307C892.307 558.907 892.28 556.52 892.24 554.12C896.573 557.28 900.733 560.24 905.96 561.76C919.427 565.533 934.64 562.36 944.547 552.227C958.6 537.907 959.147 512.413 946.827 496.88C937.533 484.933 921.44 480.267 906.96 484.08C901.307 485.52 896.827 488.707 892.267 492.187C892.327 482.058 892.319 471.93 892.312 461.802C892.309 458.423 892.307 455.045 892.307 451.667ZM929.547 504.773C923.8 499.866 915.867 498.573 908.667 500.573C898.053 503.56 891.373 514.186 892.387 525.04C892.92 535.333 900.333 544.373 910.693 545.946C920.387 547.8 930.4 543.573 935.027 534.733C940.453 524.946 938.213 511.92 929.547 504.773Z" fill="#181617" /></svg>