<svg width="2435" height="902" viewBox="0 0 2435 902" fill="none" xmlns="http://www.w3.org/2000/svg"><path d="M419.455 0H486.732L494.339 0.917288C576.602 9.28754 655.845 39.2905 722.014 89.0152C721.823 109.654 722.243 130.255 721.67 150.894C687.152 121.999 650.187 96.8121 608.406 79.613C542.007 51.1006 468.843 42.501 397.36 51.5592C332.07 60.3881 269.226 85.4989 215.824 124.101C148.164 172.832 96.0621 242.585 69.3803 321.624C49.2734 379.413 44.2658 440.948 51.07 501.566C59.3651 566.196 83.371 628.534 120.909 681.813C169.838 751.603 240.939 805.264 321.711 832.63C379.776 852.772 441.664 857.817 502.596 850.938C567.007 842.72 629.086 818.794 682.297 781.53C696.135 772.242 708.444 761.158 721.67 751.106C722.243 771.745 721.823 792.346 722.014 812.985C653.551 864.544 571.365 894.394 486.159 902H418.69C342.047 895.464 267.697 871.118 203.477 828.541C124.885 776.943 62.9965 700.694 29.2812 612.863C12.9586 571.165 4.01374 527.288 0 482.761V416.372C3.70793 385.108 8.33328 354.15 17.5075 323.917C47.0181 222.633 113.34 133.389 201.107 75.0265C266.053 31.4553 341.626 6.34458 419.455 0Z" fill="#C20736" /><path d="M227.063 317.038L229.242 316.847C322.207 315.624 415.479 316.656 508.483 316.312C532.145 315.624 553.552 322.885 571.671 338.097C586.426 350.328 593.995 366.342 603.589 382.509C627.939 424.055 652.022 465.791 676.525 507.26C676.983 450.274 676.295 393.058 676.831 336.071C678.016 317.955 701.028 310.12 714.063 321.815C720.752 327.663 722.167 335.307 722.014 343.83C721.899 424.322 722.052 505.044 721.937 585.497C630.386 585.956 538.796 585.497 447.245 585.727C432.834 585.574 419.378 585.727 405.731 580.414C384.631 572.77 367.352 557.444 356.305 538.066C328.4 490.099 300.304 442.248 272.475 394.243C272.59 451.344 273.431 508.789 272.131 565.814C271.137 583.701 250.304 590.925 236.466 581.561C228.668 575.866 227.292 567.266 227.254 558.208C227.216 477.831 227.598 397.415 227.063 317.038Z" fill="#C20736" /><path d="M856.493 317.229C996.515 317.191 1136.92 317.267 1276.94 317.191C1289.44 315.585 1300.83 328.045 1299.69 340.199C1299.3 352.43 1288.87 361.603 1276.83 361.794C1227.02 362.138 1177.02 361.794 1127.17 361.908C1127.17 384.153 1127.17 406.359 1127.17 428.565C1175.83 428.603 1224.46 428.565 1273.12 428.526C1285.54 427.838 1296.93 434.642 1299.42 447.331C1302.06 460.976 1291.05 474.582 1276.98 473.818C1227.09 474.047 1177.1 473.741 1127.17 473.932C1127.17 496.291 1127.13 518.65 1127.21 541.009C1169.41 541.009 1211.61 541.085 1253.81 540.971C1263.79 541.047 1274.42 540.359 1284.2 542.538C1298.35 546.78 1304.69 565.011 1295.4 576.86C1288.94 586.3 1279.58 586.3 1269.14 586.529C1131.61 586.262 994.069 586.759 856.531 586.262C856.455 496.597 856.531 406.932 856.493 317.229Z" fill="#C20736" /><path d="M1429.77 317.229C1562.26 317.191 1694.71 317.267 1827.21 317.229C1837.34 317.305 1847.66 316.656 1857.75 317.726C1870.17 322.197 1877.09 337.103 1870.52 349.066C1866.04 358.469 1856.45 362.138 1846.51 361.947C1797.89 361.947 1749.07 361.87 1700.37 361.908C1700.33 384.153 1700.37 406.359 1700.37 428.565C1749 428.603 1797.96 428.526 1846.51 428.565C1856.56 428.221 1866.12 432.157 1870.59 441.598C1878.31 455.892 1866.69 474.658 1850.37 473.818C1800.41 474.047 1750.33 473.741 1700.37 473.932C1700.33 511.35 1700.41 548.768 1700.3 586.185C1610.16 586.72 1519.98 586.491 1429.81 586.3C1429.73 496.635 1429.81 406.932 1429.77 317.229Z" fill="#C20736" /><path d="M1992.27 317.267C2133.05 317.267 2275.56 317.114 2416.15 317.343C2425.71 317.114 2430.07 324.338 2435 331.217V346.811C2429.88 356.099 2423.15 361.641 2412.18 361.832C2362.49 362.099 2312.6 361.832 2262.87 361.908C2262.83 384.114 2262.83 406.359 2262.87 428.565C2312.64 428.679 2362.52 428.374 2412.26 428.679C2423 428.603 2429.69 434.718 2435 443.432V459.485C2429.3 467.932 2423.42 474.658 2412.26 473.856C2362.52 473.97 2312.64 473.779 2262.87 473.932C2262.83 511.388 2262.91 548.844 2262.83 586.3C2172.65 586.491 2082.48 586.72 1992.34 586.185C1992.23 496.559 1992.3 406.894 1992.27 317.267Z" fill="#C20736" /></svg>