<svg width="3266" height="527" viewBox="0 0 3266 527" fill="none" xmlns="http://www.w3.org/2000/svg"><path d="M4.86821e-05 0H3264.77C3265.33 19.1997 3264.88 38.426 3265.01 57.6257C2189.92 57.5993 1114.83 57.6257 39.7446 57.5992C26.4964 57.5992 13.2482 57.7846 4.86821e-05 57.3079V0Z" fill="#BA0C2F" /><path d="M113.934 109.849C139.503 110.405 164.86 111.835 189.475 119.118C189.449 137.894 189.422 156.67 189.475 175.446C160.886 165.939 128.958 162.47 99.3083 168.508C89.7166 170.732 77.1839 175.022 73.9778 185.509C70.9572 197.506 80.8139 206.324 90.0081 211.912C113.033 225.524 141.438 230.635 165.788 242.129C182.083 249.676 199.2 259.951 210.434 274.199C235.765 305.289 234.97 357.248 205.612 385.557C186.773 405.181 159.005 414.662 132.535 417.734C102.143 421.521 71.7521 417.098 42.9771 407.035C29.3844 402.082 15.3149 397.263 3.17956 389.583C3.47102 367.496 3.20606 345.41 3.33854 323.324C18.8389 332.725 33.7564 342.391 50.7405 349.118C74.1103 359.128 101.455 364.213 126.679 359.578C136.589 357.645 148.088 353.064 152.566 343.239C157.15 331.931 152.407 319.802 143.107 312.625C130.653 303.065 112.689 299.145 98.01 293.822C69.5529 283.706 41.0693 272.583 19.7398 250.365C3.78898 232.701 0.264964 208.258 2.11971 185.297C3.92146 163.794 15.7653 143.799 33.4649 131.512C56.5962 115.04 86.0601 109.955 113.934 109.849Z" fill="black" /><path d="M482.26 112.524C506.531 112.55 530.828 112.55 555.099 112.55C555.099 213.183 555.099 313.817 555.099 414.45C530.828 414.45 506.531 414.45 482.26 414.476C482.234 313.817 482.234 213.183 482.26 112.524Z" fill="black" /><path d="M1144.67 112.524C1205.82 112.577 1266.98 112.524 1328.13 112.577C1328.13 131.538 1328.13 150.5 1328.13 169.487C1291.25 169.487 1254.39 169.461 1217.51 169.514C1217.53 190.011 1217.48 210.535 1217.53 231.059C1251.74 231.033 1285.95 231.059 1320.18 231.033C1320.21 249.809 1320.15 268.558 1320.18 287.308C1285.97 287.361 1251.74 287.308 1217.51 287.334C1217.51 310.745 1217.51 334.129 1217.51 357.513C1255.72 357.513 1293.92 357.486 1332.13 357.539C1332.1 376.5 1332.13 395.488 1332.1 414.45C1269.63 414.45 1207.15 414.45 1144.67 414.476C1144.64 313.817 1144.64 213.183 1144.67 112.524Z" fill="black" /><path d="M1393.73 112.524C1418.01 112.55 1442.3 112.55 1466.57 112.55C1466.57 194.196 1466.57 275.867 1466.57 357.513C1501.68 357.513 1536.79 357.513 1571.9 357.513C1571.9 376.5 1571.9 395.462 1571.9 414.423C1512.52 414.476 1453.11 414.423 1393.73 414.476C1393.71 313.817 1393.71 213.183 1393.73 112.524Z" fill="black" /><path d="M1714.34 112.524C1775.26 112.55 1836.2 112.55 1897.11 112.524C1897.17 131.512 1897.14 150.5 1897.14 169.487C1860.26 169.487 1823.37 169.461 1786.52 169.514C1786.52 190.011 1786.52 210.535 1786.52 231.033C1820.96 231.059 1855.41 231.059 1889.85 231.033C1889.88 249.809 1889.83 268.558 1889.85 287.308C1855.41 287.387 1820.96 287.308 1786.49 287.361C1786.54 310.745 1786.52 334.129 1786.52 357.486C1824.72 357.539 1862.93 357.486 1901.14 357.539C1901.11 376.5 1901.11 395.488 1901.11 414.45C1838.85 414.45 1776.58 414.45 1714.34 414.476C1714.31 313.817 1714.31 213.183 1714.34 112.524Z" fill="black" /><path d="M1960.76 112.524C1985.03 112.55 2009.32 112.55 2033.59 112.55C2033.59 194.196 2033.59 275.867 2033.59 357.513C2068.7 357.513 2103.81 357.513 2138.92 357.513C2138.92 376.5 2138.92 395.462 2138.92 414.423C2079.54 414.476 2020.13 414.423 1960.76 414.476C1960.73 313.817 1960.73 213.183 1960.76 112.524Z" fill="black" /><path d="M2106.49 112.524C2181.55 112.55 2256.59 112.55 2331.65 112.524C2331.71 131.512 2331.68 150.5 2331.68 169.487C2306.3 169.487 2280.89 169.461 2255.5 169.514C2255.53 251.159 2255.48 332.804 2255.5 414.423C2231.2 414.476 2206.93 414.476 2182.64 414.423C2182.66 332.804 2182.61 251.159 2182.64 169.514C2157.25 169.461 2131.84 169.487 2106.46 169.487C2106.46 150.5 2106.43 131.512 2106.49 112.524Z" fill="black" /><path d="M220.556 112.577C295.646 112.524 370.71 112.55 445.801 112.55C445.801 131.538 445.801 150.5 445.801 169.487C420.418 169.487 395.034 169.487 369.624 169.487C369.624 251.133 369.624 332.804 369.624 414.45C345.353 414.45 321.056 414.45 296.786 414.476C296.733 332.804 296.759 251.159 296.759 169.487C271.349 169.487 245.966 169.514 220.556 169.461C220.582 150.5 220.582 131.538 220.556 112.577Z" fill="black" /><path d="M620.651 112.577C681.804 112.524 742.984 112.577 804.138 112.524C804.191 131.512 804.138 150.5 804.191 169.461C767.308 169.514 730.425 169.487 693.542 169.487C693.542 190.011 693.542 210.535 693.542 231.059C727.775 231.033 761.982 231.059 796.189 231.033C796.242 249.809 796.215 268.558 796.215 287.334C761.982 287.361 727.775 287.308 693.542 287.361C693.568 310.745 693.542 334.129 693.542 357.513C731.75 357.513 769.931 357.513 808.139 357.513C808.139 376.5 808.165 395.488 808.112 414.476C745.634 414.45 683.155 414.45 620.677 414.45C620.651 313.817 620.704 213.21 620.651 112.577Z" fill="black" /><path d="M2996.74 113.212C3018.25 113.186 3039.74 113.239 3061.26 113.186C3105.16 171.5 3148.85 230 3192.78 288.314C3192.86 229.947 3192.78 171.58 3192.81 113.212C3215.78 113.212 3238.73 113.212 3261.7 113.212C3261.7 213.634 3261.73 314.055 3261.67 414.476C3241.88 414.45 3222.06 414.45 3202.24 414.476C3157.01 352.719 3111.84 290.936 3066.85 229.02C3067.11 290.83 3066.87 352.64 3066.98 414.423C3043.56 414.476 3020.16 414.423 2996.76 414.476C2996.71 314.055 2996.74 213.634 2996.74 113.212Z" fill="black" /><path fill-rule="evenodd" clip-rule="evenodd" d="M2396.84 112.557C2389.46 112.564 2382.09 112.571 2374.71 112.577C2374.74 213.183 2374.74 313.817 2374.71 414.423C2387.83 414.467 2400.96 414.463 2414.09 414.459C2425.03 414.455 2435.97 414.452 2446.91 414.476C2446.96 389.576 2446.95 364.677 2446.94 339.777C2446.93 323.179 2446.93 306.581 2446.94 289.982C2449 289.998 2451.12 289.979 2453.26 289.96C2462.03 289.88 2471.27 289.797 2479.45 292.074C2488.11 294.723 2494.58 301.555 2500.2 308.308C2510.14 320.606 2516.71 335.183 2523.25 349.714C2525.32 354.302 2527.39 358.886 2529.55 363.392C2533.62 371.919 2537.28 380.624 2540.94 389.33C2544.48 397.738 2548.01 406.147 2551.92 414.397C2580.03 414.476 2608.14 414.529 2636.25 414.37C2622.77 385.902 2609.36 357.38 2596.06 328.832C2585.73 306.852 2575.55 286.54 2554.25 273.166C2574.97 264.215 2591.71 249.305 2599.61 227.775C2614.79 188.449 2594.97 141.76 2557.56 123.382C2539.03 113.992 2518.81 113.504 2498.59 113.016C2494.17 112.909 2489.76 112.803 2485.36 112.603C2455.85 112.497 2426.34 112.527 2396.84 112.557ZM2465.17 168.171C2458.94 168.297 2452.8 168.421 2446.96 168.163C2446.94 190.885 2446.94 213.607 2446.96 236.356C2451.23 236.321 2455.52 236.343 2459.83 236.365C2471.94 236.426 2484.16 236.488 2496.06 235.296C2505.57 234.316 2514.61 230.635 2520.73 223.035C2533.29 207.49 2528.81 179.604 2508.83 172.454C2495.61 167.558 2480.11 167.87 2465.17 168.171Z" fill="black" /><path fill-rule="evenodd" clip-rule="evenodd" d="M2882.25 135.616C2849.05 112.179 2807.45 104.102 2767.54 110.538C2730.29 116.364 2695.95 136.517 2673.14 166.574C2627.85 225.286 2632.47 317.312 2683.87 370.913C2706.15 395.038 2736.46 410.716 2768.87 415.641C2799.02 419.72 2829.84 416.462 2857.66 403.777C2890.41 389.132 2917.19 362.518 2932.06 329.891C2946.37 299.463 2949.55 265.46 2944.12 232.489C2937.09 193.692 2914.73 158.1 2882.25 135.616ZM2825.81 178.677C2810.44 171.341 2791.95 170.361 2775.49 174.042C2755.67 178.65 2739.14 191.759 2729.6 209.661C2717.84 231.721 2715.08 258.919 2718.74 283.388C2722.05 305.395 2731.32 326.078 2749 340.22C2774.01 360.24 2811.85 360.638 2837.31 341.146C2859.7 324.357 2869.98 297.345 2871.38 270.094C2872.05 250.312 2868.76 229.126 2859.38 211.489C2851.99 197.453 2840.3 185.403 2825.81 178.677Z" fill="black" /><path fill-rule="evenodd" clip-rule="evenodd" d="M969.872 112.55C990.725 113.08 1012.32 114.642 1031.42 123.726C1047.06 131.061 1060.12 143.535 1067.62 159.133C1076.71 177.935 1076.57 200.604 1066.9 219.195C1060.44 232.224 1049.79 241.626 1037.33 248.882C1047 252.457 1056.33 256.562 1064.68 262.706C1080.28 273.643 1090.7 291.015 1093.53 309.791C1097.98 335.956 1092.55 365.298 1075.04 385.849C1064.12 399.116 1048.86 407.909 1032.09 411.431C1007.14 416.829 979.656 416.108 953.585 415.424L953.582 415.424C949.216 415.309 944.889 415.195 940.62 415.112C927.825 415.264 915.043 415.01 902.26 414.755C888.334 414.478 874.409 414.201 860.469 414.45V112.577C896.928 112.55 933.387 112.524 969.872 112.55ZM933.308 168.19C938.006 168.221 942.708 168.184 947.412 168.148C954.883 168.09 962.356 168.032 969.82 168.243C981.346 168.799 994.726 173.592 999.92 184.741C1004.05 193.984 1004.16 206.086 999.628 215.223C995.548 223.803 986.539 228.835 977.504 230.609C966.721 232.607 955.123 232.498 943.811 232.391C940.28 232.358 936.776 232.325 933.334 232.357C933.334 227.019 933.336 221.679 933.338 216.338V216.33C933.342 200.291 933.347 184.24 933.308 168.19ZM952.312 287.331C945.967 287.403 939.625 287.476 933.308 287.361C933.347 305.556 933.342 323.75 933.338 341.956C933.336 348.023 933.334 354.091 933.334 360.161C939.536 360.119 945.737 360.148 951.938 360.176C961.423 360.22 970.907 360.263 980.392 360.055C991.149 359.446 1004.05 357.115 1012.48 349.886C1023.4 340.749 1024.06 322.079 1020.14 309.527C1014.84 294.379 1000.18 289.877 985.717 287.97C974.651 287.075 963.477 287.203 952.312 287.331Z" fill="black" /><path d="M0 470.407C11.4464 469.772 22.9723 470.116 34.4453 470.063C1099.6 470.063 2164.75 470.063 3229.9 470.063C3241.62 470.036 3253.35 470.01 3265.07 470.195C3264.27 489.024 3266.55 508.383 3263.77 527H0V470.407Z" fill="#BA0C2F" /></svg>