<?xml version="1.0" encoding="UTF-8"?><svg width="1125px" height="223px" viewBox="0 0 1125 223" version="1.1" xmlns="http://www.w3.org/2000/svg" xmlns:xlink="http://www.w3.org/1999/xlink"><title>Group</title><desc>Created with Sketch.</desc><defs><polygon id="path-1" points="0.06 0 1124.32616 0 1124.32616 223.029 0.06 223.029"></polygon></defs><g id="Page-1" stroke="none" stroke-width="1" fill="none" fill-rule="evenodd"><g id="Group" transform="translate(0.000000, -0.029000)"><mask id="mask-2" fill="white"><use xlink:href="#path-1"></use></mask><g id="Clip-2"></g><path d="M1.77635684e-14,45.927 L1.77635684e-14,5.806 C1.77635684e-14,2.675 2.538,0.137 5.669,0.137 L45.791,0.137 C48.922,0.137 51.46,2.675 51.46,5.806 L51.46,45.927 C51.46,49.058 48.922,51.597 45.791,51.597 L5.669,51.597 C2.538,51.597 1.77635684e-14,49.058 1.77635684e-14,45.927" id="Fill-1" fill="#B52532" mask="url(#mask-2)"></path><path d="M1003.32,136.449 L913.085,136.449 C910.968,136.449 909.598,134.213 910.559,132.327 L955.757,43.639 C956.81,41.574 959.761,41.576 960.81,43.642 L1005.85,132.33 C1006.81,134.216 1005.44,136.449 1003.32,136.449 Z M1123.67,214.732 L1012.97,3.086 C1011.99,1.216 1010.05,0.044 1007.94,0.044 L909.255,0.044 C907.157,0.044 905.23,1.203 904.247,3.057 L805.452,189.321 C804.616,190.897 802.55,191.318 801.164,190.197 L707.85,114.673 C705.164,112.499 705.031,108.449 707.568,106.103 L811.671,9.831 C815.458,6.329 812.981,0 807.823,0 L738.461,0 C733.723,0 729.161,1.798 725.697,5.032 L644.269,83.291 C643.744,83.781 643.052,84.054 642.334,84.054 L618.451,84.054 C616.885,84.054 615.617,82.784 615.617,81.219 L615.617,5.838 C615.617,2.707 613.079,0.169 609.948,0.169 L552.839,0.169 C549.707,0.169 547.169,2.707 547.169,5.838 L547.169,217.315 C547.169,220.446 549.707,222.984 552.838,222.984 L609.947,222.984 C613.079,222.984 615.617,220.446 615.617,217.315 L615.617,138.555 C615.617,136.989 616.885,135.72 618.452,135.72 L641.406,135.72 C642.081,135.72 642.734,135.961 643.247,136.399 L736.441,218.568 C739.778,221.418 744.022,222.984 748.41,223.029 L861.685,223.029 C863.822,223.029 865.777,221.828 866.743,219.921 L883.495,186.846 C883.977,185.893 884.955,185.292 886.024,185.292 L1030.05,185.292 C1031.12,185.292 1032.1,185.893 1032.58,186.846 L1049.33,219.921 C1050.3,221.828 1052.25,223.029 1054.39,223.029 L1118.65,223.029 C1122.91,223.029 1125.65,218.506 1123.67,214.732 L1123.67,214.732 Z" id="Fill-3" fill="#B52532" mask="url(#mask-2)"></path><path d="M373.881,51.596 L521.45,51.596 C524.581,51.596 527.119,49.058 527.119,45.927 L527.119,5.807 C527.119,2.675 524.581,0.137 521.45,0.137 L70.611,0.137 C67.479,0.137 64.941,2.675 64.941,5.807 L64.941,45.927 C64.941,49.058 67.479,51.596 70.611,51.596 L125.125,51.596 C126.691,51.596 127.96,52.865 127.96,54.431 L127.96,217.309 C127.96,220.44 130.498,222.978 133.63,222.978 L190.524,222.978 C193.655,222.978 196.194,220.44 196.194,217.309 L196.194,54.431 C196.194,52.865 197.463,51.596 199.028,51.596 L299.978,51.596 C301.543,51.596 302.813,52.865 302.813,54.431 L302.813,217.309 C302.813,220.44 305.351,222.978 308.482,222.978 L521.45,222.978 C524.581,222.978 527.119,220.44 527.119,217.309 L527.119,174.48 C527.119,171.349 524.581,168.811 521.45,168.811 L373.881,168.811 C372.315,168.811 371.046,167.542 371.046,165.976 L371.046,137.758 C371.046,136.193 372.315,134.923 373.881,134.923 L494.209,134.923 C497.34,134.923 499.878,132.385 499.878,129.254 L499.878,91.842 C499.878,88.711 497.34,86.173 494.209,86.173 L373.881,86.173 C372.315,86.173 371.046,84.903 371.046,83.338 L371.046,54.431 C371.046,52.865 372.315,51.596 373.881,51.596" id="Fill-5" fill="#B52532" mask="url(#mask-2)"></path></g></g></svg>